<mxfile host="app.diagrams.net" modified="2025-01-25T14:51:12.319Z" agent="Mozilla/5.0 (Windows NT 10.0; Win64; x64) AppleWebKit/537.36 (KHTML, like Gecko) Chrome/131.0.0.0 Safari/537.36" version="22.1.21" etag="g3JNpZe024qIx-6rFmlm" type="github">
  <diagram name="Page-1" id="XvgeLyfi9btd6hkqeVps">
    <mxGraphModel>
      <root>
        <mxCell id="0" />
        <mxCell id="1" parent="0" />
      </root>
    </mxGraphModel>
  </diagram>
</mxfile>
